<svg width="764" height="609" viewBox="0 0 764 609" fill="none" xmlns="http://www.w3.org/2000/svg">
<g filter="url(#filter0_d_4_92)">
<mask id="mask0_4_92" style="mask-type:alpha" maskUnits="userSpaceOnUse" x="87" y="169" width="586" height="270">
<path d="M146.441 439C132.796 439 121.767 435.452 113.356 428.357C105.131 421.448 101.019 412.299 101.019 400.909C101.019 393.813 102.701 387.278 106.066 381.303C109.431 375.328 114.01 370.66 119.805 367.299C125.599 363.751 131.955 361.977 138.871 361.977C145.974 361.977 151.675 363.751 155.974 367.299C160.46 370.846 162.703 375.515 162.703 381.303C162.703 385.784 161.675 389.332 159.619 391.946C157.937 389.705 155.6 387.932 152.609 386.624C149.806 385.317 146.815 384.664 143.637 384.664C138.029 384.664 133.45 386.531 129.898 390.266C126.347 394 124.571 398.855 124.571 404.83C124.571 410.805 126.253 415.66 129.618 419.394C133.17 423.129 137.562 424.996 142.796 424.996C149.338 424.996 154.946 422.102 159.619 416.313C164.292 410.525 167.843 401.936 170.273 390.546L184.292 328.647H183.171C178.124 335.743 171.956 341.158 164.666 344.892C157.563 348.627 149.712 350.494 141.114 350.494C130.272 350.494 120.739 347.6 112.515 341.811C104.29 336.023 97.9349 327.807 93.4488 317.164C89.1496 306.334 87 293.824 87 279.633C87 259.093 91.4861 240.421 100.458 223.616C109.431 206.624 121.767 193.274 137.469 183.564C153.17 173.855 170.46 169 189.339 169C205.228 169 217.751 172.454 226.91 179.363C236.257 186.272 240.93 195.701 240.93 207.651C240.93 215.681 238.967 222.122 235.042 226.977C231.116 231.832 225.976 234.259 219.621 234.259C216.069 234.259 212.704 233.512 209.527 232.019C206.536 230.525 204.013 228.378 201.957 225.577C205.321 223.336 208.125 219.788 210.368 214.934C212.798 209.892 214.013 204.851 214.013 199.809C214.013 194.207 212.331 189.913 208.966 186.925C205.788 183.751 201.209 182.164 195.227 182.164C184.386 182.164 173.918 187.019 163.825 196.728C153.731 206.251 145.6 218.761 139.431 234.259C133.263 249.757 130.179 266.002 130.179 282.994C130.179 296.998 132.422 307.734 136.908 315.203C141.394 322.485 147.843 326.127 156.254 326.127C166.348 326.127 175.227 320.805 182.891 310.162C190.741 299.519 197.003 284.021 201.676 263.668L234.761 263.948L214.293 358.056C208.312 385.878 199.807 406.324 188.779 419.394C177.937 432.465 163.825 439 146.441 439Z" fill="#872426"/>
<path d="M262.834 240.981H303.209L299.564 258.346C305.92 252.745 311.621 248.45 316.668 245.463C321.902 242.475 327.509 240.981 333.491 240.981C339.472 240.981 344.145 243.035 347.51 247.143C351.061 251.251 352.837 256.199 352.837 261.988C352.837 267.402 351.061 272.164 347.51 276.272C343.958 280.38 339.005 282.434 332.649 282.434C328.537 282.434 325.733 281.5 324.238 279.633C322.93 277.579 321.901 274.685 321.154 270.95C320.593 268.523 320.032 266.749 319.472 265.629C318.911 264.508 317.883 263.948 316.387 263.948C312.462 263.948 309.097 264.788 306.294 266.469C303.677 267.963 300.219 270.67 295.919 274.591L273.489 381.023H233.114L262.834 240.981Z" fill="#872426"/>
<path d="M390.121 382.143C376.289 382.143 365.354 378.595 357.316 371.5C349.279 364.405 345.26 353.201 345.26 337.89C345.26 325.193 347.877 311.095 353.111 295.598C358.345 280.1 366.756 266.749 378.345 255.546C389.934 244.156 404.514 238.461 422.085 238.461C446.011 238.461 457.974 253.398 457.974 283.274V283.554C458.534 283.741 459.562 283.834 461.058 283.834C467.226 283.834 474.329 282.247 482.367 279.073C490.404 275.712 497.694 271.697 504.237 267.029L506.76 274.591C501.339 280.38 494.236 285.328 485.451 289.436C476.853 293.357 467.413 296.158 457.132 297.838C455.637 314.83 451.805 329.674 445.637 342.371C439.468 355.068 431.524 364.871 421.804 371.78C412.084 378.689 401.523 382.143 390.121 382.143ZM401.336 356.936C405.823 356.936 410.309 354.415 414.795 349.373C419.281 344.145 423.206 337.143 426.571 328.367C429.935 319.405 432.365 309.508 433.861 298.678C428.814 297.558 426.29 293.637 426.29 286.915C426.29 279.259 429.188 274.218 434.982 271.79C434.608 265.629 433.674 261.427 432.178 259.187C430.683 256.759 428.066 255.546 424.328 255.546C418.159 255.546 412.178 260.027 406.383 268.99C400.589 277.952 395.916 288.689 392.364 301.199C388.813 313.71 387.037 324.726 387.037 334.249C387.037 343.212 388.065 349.28 390.121 352.454C392.177 355.442 395.916 356.936 401.336 356.936Z" fill="#872426"/>
<path d="M513.336 382.143C499.504 382.143 488.569 378.595 480.531 371.5C472.494 364.405 468.475 353.201 468.475 337.89C468.475 325.193 471.092 311.095 476.325 295.598C481.559 280.1 489.971 266.749 501.56 255.546C513.149 244.156 527.729 238.461 545.299 238.461C569.225 238.461 581.188 253.398 581.188 283.274V283.554C581.749 283.741 582.777 283.834 584.272 283.834C590.441 283.834 597.544 282.247 605.581 279.073C613.619 275.712 620.909 271.697 627.451 267.029L629.975 274.591C624.554 280.38 617.451 285.328 608.666 289.436C600.067 293.357 590.628 296.158 580.347 297.838C578.852 314.83 575.02 329.674 568.851 342.371C562.683 355.068 554.739 364.871 545.019 371.78C535.299 378.689 524.738 382.143 513.336 382.143ZM524.551 356.936C529.037 356.936 533.523 354.415 538.009 349.373C542.495 344.145 546.421 337.143 549.785 328.367C553.15 319.405 555.58 309.508 557.075 298.678C552.028 297.558 549.505 293.637 549.505 286.915C549.505 279.259 552.402 274.218 558.197 271.79C557.823 265.629 556.888 261.427 555.393 259.187C553.898 256.759 551.281 255.546 547.542 255.546C541.374 255.546 535.392 260.027 529.598 268.99C523.803 277.952 519.13 288.689 515.579 301.199C512.027 313.71 510.252 324.726 510.252 334.249C510.252 343.212 511.28 349.28 513.336 352.454C515.392 355.442 519.13 356.936 524.551 356.936Z" fill="#872426"/>
<path d="M621.971 382.703C612.438 382.703 605.335 379.809 600.662 374.021C596.175 368.232 593.932 360.577 593.932 351.054C593.932 346.199 594.493 341.251 595.615 336.21L613.559 252.185H604.306L606.55 240.981H615.802L624.214 202.33L665.71 196.728C664.028 203.824 663.093 208.025 662.906 209.332C661.598 214.56 659.355 225.11 656.177 240.981H673L670.757 252.185H653.934L635.99 336.21C635.055 340.317 634.588 343.585 634.588 346.012C634.588 352.734 637.859 356.095 644.401 356.095C647.766 356.095 650.196 355.815 651.691 355.255C647.953 366.085 643.56 373.367 638.513 377.102C633.466 380.836 627.952 382.703 621.971 382.703Z" fill="#872426"/>
</mask>
<g mask="url(#mask0_4_92)">
<path d="M827.748 315.716C799.994 406.494 698 455.78 599.938 425.799C501.876 395.819 444.88 297.925 472.634 207.147C500.387 116.369 602.381 67.0834 700.443 97.0639C798.505 127.044 855.501 224.939 827.748 315.716Z" fill="#641819"/>
<path d="M305.666 135.813C285.392 202.129 198.123 234.232 110.746 207.518C23.3696 180.804 -31.0275 105.389 -10.7529 39.0743C9.52166 -27.2409 96.7903 -59.3442 184.167 -32.6305C271.544 -5.91669 325.941 69.4982 305.666 135.813Z" fill="#D15255"/>
<path d="M745.156 541.7C725.971 604.451 635.174 632.316 542.354 603.938C449.534 575.561 389.841 501.686 409.026 438.935C428.211 376.183 519.009 348.318 611.829 376.696C704.649 405.074 764.341 478.949 745.156 541.7Z" fill="#AB2E30"/>
<path d="M474.674 299.517C454.322 366.086 387.306 404.606 324.989 385.553C262.672 366.501 228.654 297.092 249.006 230.523C269.358 163.955 336.374 125.435 398.69 144.487C461.007 163.539 495.026 232.948 474.674 299.517Z" fill="#BA373A"/>
<path d="M304.85 349.297C284.234 416.728 191.965 448.291 98.761 419.795C5.5569 391.3 -53.2878 313.537 -32.6722 246.106C-12.0566 178.676 80.2125 147.113 173.417 175.608C266.621 204.103 325.465 281.867 304.85 349.297Z" fill="#711E20"/>
<g filter="url(#filter1_b_4_92)">
<path d="M146.441 439C132.796 439 121.767 435.452 113.356 428.357C105.131 421.448 101.019 412.299 101.019 400.909C101.019 393.813 102.701 387.278 106.066 381.303C109.431 375.328 114.01 370.66 119.805 367.299C125.599 363.751 131.955 361.977 138.871 361.977C145.974 361.977 151.675 363.751 155.974 367.299C160.46 370.847 162.703 375.515 162.703 381.303C162.703 385.784 161.675 389.332 159.619 391.946C157.937 389.705 155.6 387.932 152.609 386.624C149.806 385.317 146.815 384.664 143.637 384.664C138.029 384.664 133.45 386.531 129.898 390.266C126.347 394 124.571 398.855 124.571 404.83C124.571 410.805 126.253 415.66 129.618 419.394C133.17 423.129 137.562 424.996 142.796 424.996C149.338 424.996 154.946 422.102 159.619 416.313C164.292 410.525 167.843 401.936 170.273 390.546L184.292 328.647H183.171C178.124 335.743 171.956 341.158 164.666 344.892C157.563 348.627 149.712 350.494 141.114 350.494C130.272 350.494 120.739 347.6 112.515 341.811C104.29 336.023 97.9349 327.807 93.4488 317.164C89.1496 306.334 87 293.824 87 279.633C87 259.093 91.4861 240.421 100.458 223.616C109.431 206.624 121.767 193.274 137.469 183.564C153.17 173.855 170.46 169 189.339 169C205.228 169 217.751 172.454 226.91 179.363C236.257 186.272 240.93 195.701 240.93 207.651C240.93 215.681 238.967 222.122 235.042 226.977C231.116 231.832 225.976 234.259 219.621 234.259C216.069 234.259 212.704 233.512 209.527 232.019C206.536 230.525 204.013 228.378 201.957 225.577C205.321 223.336 208.125 219.788 210.368 214.934C212.798 209.892 214.013 204.851 214.013 199.809C214.013 194.207 212.331 189.913 208.966 186.925C205.788 183.751 201.209 182.164 195.227 182.164C184.386 182.164 173.918 187.019 163.825 196.728C153.731 206.251 145.6 218.761 139.431 234.259C133.263 249.757 130.179 266.002 130.179 282.994C130.179 296.998 132.422 307.734 136.908 315.203C141.394 322.485 147.843 326.127 156.254 326.127C166.348 326.127 175.227 320.805 182.891 310.162C190.741 299.519 197.003 284.021 201.676 263.668L234.761 263.948L214.293 358.056C208.312 385.878 199.807 406.324 188.779 419.394C177.937 432.465 163.825 439 146.441 439Z" fill="#872426" fill-opacity="0.01"/>
<path d="M262.834 240.981H303.209L299.564 258.346C305.92 252.745 311.621 248.45 316.668 245.463C321.902 242.475 327.509 240.981 333.491 240.981C339.472 240.981 344.145 243.035 347.51 247.143C351.061 251.251 352.837 256.199 352.837 261.988C352.837 267.402 351.061 272.164 347.51 276.272C343.958 280.38 339.005 282.434 332.649 282.434C328.537 282.434 325.733 281.5 324.238 279.633C322.93 277.579 321.901 274.685 321.154 270.95C320.593 268.523 320.032 266.749 319.472 265.629C318.911 264.508 317.883 263.948 316.387 263.948C312.462 263.948 309.097 264.788 306.294 266.469C303.677 267.963 300.219 270.67 295.919 274.591L273.489 381.023H233.114L262.834 240.981Z" fill="#872426" fill-opacity="0.01"/>
<path d="M390.121 382.143C376.289 382.143 365.354 378.595 357.316 371.5C349.279 364.405 345.26 353.201 345.26 337.89C345.26 325.193 347.877 311.095 353.111 295.598C358.345 280.1 366.756 266.749 378.345 255.546C389.934 244.156 404.514 238.461 422.085 238.461C446.011 238.461 457.974 253.398 457.974 283.274V283.554C458.534 283.741 459.562 283.834 461.058 283.834C467.226 283.834 474.329 282.247 482.367 279.073C490.404 275.712 497.694 271.697 504.237 267.029L506.76 274.591C501.339 280.38 494.236 285.328 485.451 289.436C476.853 293.357 467.413 296.158 457.132 297.838C455.637 314.83 451.805 329.674 445.637 342.371C439.468 355.068 431.524 364.871 421.804 371.78C412.084 378.689 401.523 382.143 390.121 382.143ZM401.336 356.936C405.823 356.936 410.309 354.415 414.795 349.373C419.281 344.145 423.206 337.143 426.571 328.367C429.935 319.405 432.365 309.508 433.861 298.678C428.814 297.558 426.29 293.637 426.29 286.915C426.29 279.259 429.188 274.218 434.982 271.79C434.608 265.629 433.674 261.427 432.178 259.187C430.683 256.759 428.066 255.546 424.328 255.546C418.159 255.546 412.178 260.027 406.383 268.99C400.589 277.952 395.916 288.689 392.364 301.199C388.813 313.71 387.037 324.726 387.037 334.249C387.037 343.212 388.065 349.28 390.121 352.454C392.177 355.442 395.916 356.936 401.336 356.936Z" fill="#872426" fill-opacity="0.01"/>
<path d="M513.336 382.143C499.504 382.143 488.569 378.595 480.531 371.5C472.493 364.405 468.475 353.201 468.475 337.89C468.475 325.193 471.092 311.095 476.325 295.598C481.559 280.1 489.971 266.749 501.56 255.546C513.149 244.156 527.729 238.461 545.299 238.461C569.225 238.461 581.188 253.398 581.188 283.274V283.554C581.749 283.741 582.777 283.834 584.272 283.834C590.441 283.834 597.544 282.247 605.581 279.073C613.619 275.712 620.909 271.697 627.451 267.029L629.975 274.591C624.554 280.38 617.451 285.328 608.666 289.436C600.067 293.357 590.628 296.158 580.347 297.838C578.852 314.83 575.02 329.674 568.851 342.371C562.683 355.068 554.739 364.871 545.019 371.78C535.299 378.689 524.738 382.143 513.336 382.143ZM524.551 356.936C529.037 356.936 533.523 354.415 538.009 349.373C542.495 344.145 546.421 337.143 549.785 328.367C553.15 319.405 555.58 309.508 557.075 298.678C552.028 297.558 549.505 293.637 549.505 286.915C549.505 279.259 552.402 274.218 558.197 271.79C557.823 265.629 556.888 261.427 555.393 259.187C553.898 256.759 551.281 255.546 547.542 255.546C541.374 255.546 535.392 260.027 529.598 268.99C523.803 277.952 519.13 288.689 515.579 301.199C512.027 313.71 510.252 324.726 510.252 334.249C510.252 343.212 511.28 349.28 513.336 352.454C515.392 355.442 519.13 356.936 524.551 356.936Z" fill="#872426" fill-opacity="0.01"/>
<path d="M621.971 382.703C612.438 382.703 605.335 379.809 600.661 374.021C596.175 368.232 593.932 360.577 593.932 351.054C593.932 346.199 594.493 341.251 595.615 336.21L613.559 252.185H604.306L606.549 240.981H615.802L624.214 202.33L665.71 196.728C664.028 203.824 663.093 208.025 662.906 209.332C661.598 214.56 659.355 225.11 656.177 240.981H673L670.757 252.185H653.934L635.99 336.21C635.055 340.317 634.588 343.585 634.588 346.012C634.588 352.734 637.859 356.095 644.401 356.095C647.766 356.095 650.196 355.815 651.691 355.255C647.953 366.085 643.56 373.367 638.513 377.102C633.466 380.836 627.952 382.703 621.971 382.703Z" fill="#872426" fill-opacity="0.01"/>
</g>
</g>
</g>
<path d="M556.68 429L556.68 386.04L574.14 386.04C578.14 386.04 581.24 387.04 583.44 389.04C585.72 391.12 586.86 393.76 586.86 396.96C586.86 401.36 584.86 404.48 580.86 406.32C586.1 408.32 588.72 411.8 588.72 416.76C588.72 420.2 587.62 423.08 585.42 425.4C583.14 427.8 580 429 576 429L556.68 429ZM562.14 404.52L572.76 404.52C575.56 404.52 577.64 404.02 579 403.02C580.56 401.86 581.34 400.1 581.34 397.74C581.34 395.38 580.56 393.6 579 392.4C577.64 391.4 575.56 390.9 572.76 390.9L562.14 390.9L562.14 404.52ZM562.14 424.14L575.52 424.14C577.96 424.14 579.86 423.5 581.22 422.22C582.58 420.9 583.26 419.08 583.26 416.76C583.26 414.44 582.58 412.64 581.22 411.36C579.86 410.04 577.96 409.38 575.52 409.38L562.14 409.38L562.14 424.14ZM614.296 385.38C620.936 385.38 626.176 387.68 630.016 392.28C633.336 396.28 634.996 401.36 634.996 407.52C634.996 414.6 632.856 420.2 628.576 424.32C624.816 427.88 620.056 429.66 614.296 429.66C607.616 429.66 602.356 427.36 598.516 422.76C595.196 418.76 593.536 413.68 593.536 407.52C593.536 400.44 595.696 394.84 600.016 390.72C603.736 387.16 608.496 385.38 614.296 385.38ZM614.236 390.24C609.356 390.24 605.496 392.02 602.656 395.58C600.216 398.7 598.996 402.68 598.996 407.52C598.996 413.08 600.576 417.46 603.736 420.66C606.496 423.42 609.996 424.8 614.236 424.8C619.156 424.8 623.036 423.02 625.876 419.46C628.316 416.34 629.536 412.36 629.536 407.52C629.536 401.96 627.956 397.58 624.796 394.38C622.036 391.62 618.516 390.24 614.236 390.24ZM658.017 390.9L658.017 429L652.557 429L652.557 390.9L638.397 390.9L638.397 386.04L672.057 386.04L672.057 390.9L658.017 390.9Z" fill="#3E0C0D"/>
<defs>
<filter id="filter0_d_4_92" x="86" y="166" width="596" height="280" filterUnits="userSpaceOnUse" color-interpolation-filters="sRGB">
<feFlood flood-opacity="0" result="BackgroundImageFix"/>
<feColorMatrix in="SourceAlpha" type="matrix" values="0 0 0 0 0 0 0 0 0 0 0 0 0 0 0 0 0 0 127 0" result="hardAlpha"/>
<feOffset dx="4" dy="2"/>
<feGaussianBlur stdDeviation="2.5"/>
<feComposite in2="hardAlpha" operator="out"/>
<feColorMatrix type="matrix" values="0 0 0 0 0 0 0 0 0 0 0 0 0 0 0 0 0 0 0.15 0"/>
<feBlend mode="normal" in2="BackgroundImageFix" result="effect1_dropShadow_4_92"/>
<feBlend mode="normal" in="SourceGraphic" in2="effect1_dropShadow_4_92" result="shape"/>
</filter>
<filter id="filter1_b_4_92" x="-20.6" y="61.4" width="801.2" height="485.2" filterUnits="userSpaceOnUse" color-interpolation-filters="sRGB">
<feFlood flood-opacity="0" result="BackgroundImageFix"/>
<feGaussianBlur in="BackgroundImage" stdDeviation="53.8"/>
<feComposite in2="SourceAlpha" operator="in" result="effect1_backgroundBlur_4_92"/>
<feBlend mode="normal" in="SourceGraphic" in2="effect1_backgroundBlur_4_92" result="shape"/>
</filter>
</defs>
</svg>
