<svg width="80" height="60" viewBox="0 0 80 60" fill="none" xmlns="http://www.w3.org/2000/svg">
<path d="M8.988 19.764L9.92595 20.1108L10.6449 18.1663L8.67552 18.8141L8.988 19.764ZM5.684 22.088L4.87405 21.5015L4.8722 21.5041L5.684 22.088ZM4.732 27.52L5.62643 27.0728L5.62643 27.0728L4.732 27.52ZM4.928 27.996V28.996H5.928V27.996H4.928ZM3.248 21.976L2.45257 21.37L2.4511 21.3719L3.248 21.976ZM6.664 19.12L7.13025 20.0047L7.13459 20.0024L6.664 19.12ZM12.964 18.392L13.963 18.4356L13.9952 17.6997L13.3019 17.4508L12.964 18.392ZM12.32 33.148L11.321 33.1044L13.2428 33.5332L12.32 33.148ZM18.48 18.392V17.392H17.8138L17.5572 18.0068L18.48 18.392ZM22.512 18.392L23.502 18.5332L23.6648 17.392H22.512V18.392ZM19.572 39V40H20.4395L20.562 39.1412L19.572 39ZM15.54 39L14.55 38.8589L14.3874 40H15.54V39ZM17.332 26.428L18.322 26.5691L16.4096 26.0418L17.332 26.428ZM12.068 39V40H12.7334L12.9904 39.3862L12.068 39ZM8.232 39L7.23298 38.9557L7.18667 40H8.232V39ZM8.792 26.372L9.79102 26.4163L7.85423 26.0248L8.792 26.372ZM4.116 39V40H4.81207L5.05377 39.3472L4.116 39ZM1.876 39L0.938054 38.6532L0.440117 40H1.876V39ZM8.67552 18.8141C7.08145 19.3384 5.79583 20.2286 4.87406 21.5015L6.49394 22.6745C7.14017 21.7821 8.05722 21.1229 9.30048 20.7139L8.67552 18.8141ZM4.8722 21.5041C3.96059 22.7714 3.536 24.3128 3.536 26.064H5.536C5.536 24.6418 5.87674 23.5326 6.4958 22.6719L4.8722 21.5041ZM3.536 26.064C3.536 26.4454 3.55333 26.7918 3.59394 27.0934C3.63278 27.3819 3.70077 27.6936 3.83757 27.9672L5.62643 27.0728C5.63256 27.0851 5.60256 27.0234 5.57606 26.8266C5.55133 26.6429 5.536 26.3919 5.536 26.064H3.536ZM3.83757 27.9672C3.86719 28.0265 3.8917 28.0771 3.91157 28.1196C3.93166 28.1627 3.94544 28.1942 3.95432 28.2157C3.95867 28.2263 3.96109 28.2327 3.96209 28.2354C3.96322 28.2385 3.9618 28.2349 3.95908 28.2259C3.95667 28.218 3.95049 28.1969 3.94436 28.1663C3.94119 28.1505 3.93735 28.1287 3.9342 28.1021C3.93111 28.0761 3.928 28.0398 3.928 27.996H5.928C5.928 27.8276 5.88657 27.6901 5.87242 27.6436C5.85155 27.575 5.8265 27.5097 5.80368 27.4543C5.75754 27.3422 5.69625 27.2124 5.62643 27.0728L3.83757 27.9672ZM4.928 26.996C4.04746 26.996 3.57357 26.8054 3.32886 26.5972C3.11516 26.4155 2.932 26.097 2.932 25.448H0.932C0.932 26.4977 1.24817 27.4532 2.03315 28.1208C2.7871 28.762 3.81121 28.996 4.928 28.996V26.996ZM2.932 25.448C2.932 24.5592 3.26526 23.6086 4.0449 22.5801L2.4511 21.3719C1.47608 22.6581 0.932 24.0221 0.932 25.448H2.932ZM4.04343 22.582C4.84635 21.5282 5.87021 20.6687 7.13024 20.0047L6.19776 18.2353C4.69512 19.0273 3.44165 20.0718 2.45257 21.37L4.04343 22.582ZM7.13459 20.0024C8.41146 19.3214 9.64175 19 10.836 19V17C9.26758 17 7.71655 17.4253 6.19341 18.2376L7.13459 20.0024ZM10.836 19C11.3986 19 11.9936 19.1061 12.6261 19.3332L13.3019 17.4508C12.4784 17.1552 11.6548 17 10.836 17V19ZM11.965 18.3484L11.321 33.1044L13.319 33.1916L13.963 18.4356L11.965 18.3484ZM13.2428 33.5332L19.4028 18.7772L17.5572 18.0068L11.3972 32.7628L13.2428 33.5332ZM18.48 19.392H22.512V17.392H18.48V19.392ZM21.522 18.2508L18.582 38.8588L20.562 39.1412L23.502 18.5332L21.522 18.2508ZM19.572 38H15.54V40H19.572V38ZM16.53 39.1411L18.322 26.5691L16.342 26.2869L14.55 38.8589L16.53 39.1411ZM16.4096 26.0418L11.1456 38.6138L12.9904 39.3862L18.2544 26.8142L16.4096 26.0418ZM12.068 38H8.232V40H12.068V38ZM9.23102 39.0443L9.79102 26.4163L7.79298 26.3277L7.23298 38.9557L9.23102 39.0443ZM7.85423 26.0248L3.17823 38.6528L5.05377 39.3472L9.72977 26.7192L7.85423 26.0248ZM4.116 38H1.876V40H4.116V38ZM2.81395 39.3468L9.92595 20.1108L8.05005 19.4172L0.938054 38.6532L2.81395 39.3468ZM22.2911 38.048L21.6289 38.7973L22.2911 38.048ZM21.8711 30.46L22.8186 30.7796L21.8711 30.46ZM24.3911 26.456L25.0865 27.1746L25.0924 27.1688L24.3911 26.456ZM32.3431 29.256H31.3431V29.9768L32.0268 30.2047L32.3431 29.256ZM34.7791 28.808L35.1467 29.738L35.156 29.7343L35.1652 29.7304L34.7791 28.808ZM36.9631 27.604L37.9117 27.2878L37.4836 26.0033L36.3818 26.7903L36.9631 27.604ZM37.2151 28.36L37.9453 29.0432L38.352 28.6085L38.1637 28.0438L37.2151 28.36ZM35.0871 29.844L35.5024 30.7537L35.511 30.7497L35.0871 29.844ZM32.2591 30.684L32.0976 29.6971L31.3309 29.8226L31.2629 30.5964L32.2591 30.684ZM31.1111 35.136L30.2114 34.6994L31.1111 35.136ZM28.7311 38.076L28.1513 37.2612L28.7311 38.076ZM28.0311 35.836L28.7785 36.5004L28.7845 36.4936L28.7903 36.4868L28.0311 35.836ZM29.2071 33.736L30.1409 34.0937L30.1434 34.0871L29.2071 33.736ZM29.9351 30.768L30.9257 30.9046L31.0516 29.9917L30.152 29.7918L29.9351 30.768ZM30.0471 28.08L30.4338 29.0022L31.0882 28.7278L31.0452 28.0195L30.0471 28.08ZM29.7671 26.82L28.9154 27.3441L28.9249 27.3596L28.935 27.3747L29.7671 26.82ZM27.1911 27.8L28.0311 28.3425L27.1911 27.8ZM25.7911 31.02L26.7531 31.2928L25.7911 31.02ZM25.5671 36.144L24.7275 36.6873L24.7351 36.699L24.743 36.7105L25.5671 36.144ZM25.5671 38.112C24.3572 38.112 23.5253 37.8042 22.9533 37.2987L21.6289 38.7973C22.6622 39.7105 24.0143 40.112 25.5671 40.112V38.112ZM22.9533 37.2987C22.4447 36.8492 22.0871 36.0583 22.0871 34.688H20.0871C20.0871 36.379 20.5321 37.8281 21.6289 38.7973L22.9533 37.2987ZM22.0871 34.688C22.0871 33.5535 22.3212 32.2541 22.8186 30.7796L20.9235 30.1403C20.3756 31.7645 20.0871 33.2838 20.0871 34.688H22.0871ZM22.8186 30.7796C23.2911 29.3791 24.0456 28.1819 25.0865 27.1746L23.6956 25.7374C22.4218 26.9701 21.4964 28.4422 20.9235 30.1403L22.8186 30.7796ZM25.0924 27.1688C26.0467 26.2299 27.2435 25.748 28.7591 25.748V23.748C26.7653 23.748 25.0501 24.4047 23.6897 25.7432L25.0924 27.1688ZM28.7591 25.748C29.733 25.748 30.3051 26.0413 30.6662 26.4927C31.0614 26.9867 31.3431 27.8415 31.3431 29.228H33.3431C33.3431 27.6278 33.0274 26.2426 32.2279 25.2433C31.3944 24.2014 30.1744 23.748 28.7591 23.748V25.748ZM31.3431 29.228V29.256H33.3431V29.228H31.3431ZM32.0268 30.2047C32.2552 30.2808 32.5095 30.284 32.6511 30.284V28.284C32.6239 28.284 32.602 28.2836 32.5848 28.2829C32.5674 28.2823 32.5571 28.2815 32.5526 28.2811C32.5505 28.2809 32.5507 28.2809 32.5529 28.2812C32.555 28.2815 32.5601 28.2821 32.5676 28.2835C32.575 28.2848 32.5864 28.287 32.6009 28.2905C32.6152 28.2939 32.6352 28.2993 32.6593 28.3073L32.0268 30.2047ZM32.6511 30.284C33.4325 30.284 34.2705 30.0844 35.1467 29.738L34.4114 27.878C33.6823 28.1663 33.1016 28.284 32.6511 28.284V30.284ZM35.1652 29.7304C36.0311 29.368 36.8254 28.9313 37.5443 28.4177L36.3818 26.7903C35.7941 27.2101 35.1324 27.576 34.3929 27.8856L35.1652 29.7304ZM36.0144 27.9202L36.2664 28.6762L38.1637 28.0438L37.9117 27.2878L36.0144 27.9202ZM36.4848 27.6768C36.0475 28.1443 35.45 28.57 34.6631 28.9383L35.511 30.7497C36.4788 30.2967 37.3 29.733 37.9453 29.0432L36.4848 27.6768ZM34.6718 28.9343C33.9017 29.2859 33.0454 29.542 32.0976 29.6971L32.4206 31.6709C33.526 31.49 34.5551 31.1861 35.5024 30.7537L34.6718 28.9343ZM31.2629 30.5964C31.1221 32.1984 30.7645 33.5598 30.2114 34.6994L32.0107 35.5726C32.6897 34.1736 33.0974 32.5669 33.2552 30.7716L31.2629 30.5964ZM30.2114 34.6994C29.6551 35.8457 28.9621 36.6843 28.1513 37.2612L29.3108 38.8908C30.4413 38.0864 31.335 36.965 32.0107 35.5726L30.2114 34.6994ZM28.1513 37.2612C27.3416 37.8373 26.4879 38.112 25.5671 38.112V40.112C26.9235 40.112 28.1792 39.696 29.3108 38.8908L28.1513 37.2612ZM26.6871 37.592C27.5393 37.592 28.2371 37.1094 28.7785 36.5004L27.2837 35.1716C26.929 35.5706 26.7309 35.592 26.6871 35.592V37.592ZM28.7903 36.4868C29.3346 35.8518 29.7779 35.0416 30.1409 34.0936L28.2732 33.3784C27.9643 34.185 27.6235 34.7748 27.2718 35.1852L28.7903 36.4868ZM30.1434 34.0871C30.5087 33.1129 30.7676 32.0504 30.9257 30.9046L28.9444 30.6314C28.8038 31.6509 28.5774 32.5671 28.2707 33.3849L30.1434 34.0871ZM30.152 29.7918C30.1302 29.787 30.1378 29.7853 30.159 29.7994C30.182 29.8148 30.1998 29.8345 30.2092 29.8492C30.217 29.8614 30.2092 29.8545 30.1994 29.813C30.1893 29.7704 30.1791 29.6993 30.1791 29.592H28.1791C28.1791 30.0393 28.2609 30.517 28.5269 30.9308C28.8114 31.3734 29.2392 31.6378 29.7181 31.7442L30.152 29.7918ZM30.1791 29.592C30.1791 29.3303 30.229 29.1977 30.2633 29.1379C30.2898 29.0917 30.3297 29.0458 30.4338 29.0022L29.6603 27.1578C29.1858 27.3568 28.7917 27.6843 28.5288 28.1421C28.2738 28.5863 28.1791 29.0884 28.1791 29.592H30.1791ZM31.0452 28.0195C31.0246 27.6794 30.9871 27.3644 30.9253 27.0861C30.8659 26.819 30.7709 26.5229 30.5991 26.2653L28.935 27.3747C28.9126 27.3411 28.9389 27.367 28.9729 27.5199C29.0044 27.6616 29.0322 27.8646 29.0489 28.1405L31.0452 28.0195ZM30.6187 26.2959C30.2315 25.6667 29.5817 25.456 28.9831 25.456V27.456C29.0656 27.456 29.0722 27.4699 29.038 27.454C29.0197 27.4455 28.9956 27.4311 28.9708 27.4091C28.9459 27.387 28.9275 27.3638 28.9154 27.3441L30.6187 26.2959ZM28.9831 25.456C27.8376 25.456 26.9792 26.2848 26.351 27.2575L28.0311 28.3425C28.5603 27.5232 28.8965 27.456 28.9831 27.456V25.456ZM26.351 27.2575C25.7083 28.2527 25.205 29.4211 24.829 30.7472L26.7531 31.2928C27.0864 30.1175 27.5165 29.1393 28.0311 28.3425L26.351 27.2575ZM24.829 30.7472C24.4577 32.0566 24.2591 33.2531 24.2591 34.324H26.2591C26.2591 33.4909 26.4151 32.4847 26.7531 31.2928L24.829 30.7472ZM24.2591 34.324C24.2591 34.8051 24.2863 35.2407 24.3501 35.6179C24.4116 35.9814 24.5189 36.3649 24.7275 36.6873L26.4066 35.6007C26.4099 35.6058 26.3632 35.5273 26.322 35.2841C26.2832 35.0546 26.2591 34.7389 26.2591 34.324H24.2591ZM24.743 36.7105C25.2146 37.3964 25.9879 37.592 26.6871 37.592V35.592C26.5022 35.592 26.4078 35.5657 26.3725 35.5515C26.3483 35.5418 26.3699 35.5466 26.3911 35.5775L24.743 36.7105ZM35.1278 25V24H34.3175L34.1495 24.7926L35.1278 25ZM39.1598 25L40.1385 25.2052L40.3912 24H39.1598V25ZM38.7957 26.736L37.817 26.5308L37.199 29.4786L39.4574 27.4858L38.7957 26.736ZM40.5037 25.448L40.0076 24.5798L40.0008 24.5837L39.9939 24.5877L40.5037 25.448ZM43.5838 25.616L42.8098 26.2492L42.8182 26.2595L42.8269 26.2696L43.5838 25.616ZM43.5838 28.528L42.8269 27.8744L43.5838 28.528ZM41.2598 28.864L40.4161 29.4009L40.4451 29.4465L40.4789 29.4887L41.2598 28.864ZM40.9518 27.996L41.9323 27.7999L41.9294 27.7855L41.9261 27.7711L40.9518 27.996ZM40.7838 27.464L41.6782 27.0168L41.6782 27.0168L40.7838 27.464ZM39.4678 27.548L39.9639 28.4162L39.9731 28.411L39.9822 28.4055L39.4678 27.548ZM38.4318 28.36L37.7575 27.6215L37.5196 27.8387L37.4532 28.154L38.4318 28.36ZM36.1917 39V40H37.0031L37.1703 39.206L36.1917 39ZM32.1598 39L31.1815 38.7926L30.9255 40H32.1598V39ZM35.1278 26H39.1598V24H35.1278V26ZM38.181 24.7948L37.817 26.5308L39.7745 26.9412L40.1385 25.2052L38.181 24.7948ZM39.4574 27.4858C40.0638 26.9508 40.5815 26.5643 41.0136 26.3083L39.9939 24.5877C39.418 24.929 38.797 25.4012 38.1341 25.9862L39.4574 27.4858ZM40.9999 26.3162C41.3727 26.1032 41.7619 26 42.1838 26V24C41.411 24 40.6801 24.1955 40.0076 24.5798L40.9999 26.3162ZM42.1838 26C42.5237 26 42.6891 26.1018 42.8098 26.2492L44.3577 24.9828C43.8064 24.3089 43.0384 24 42.1838 24V26ZM42.8269 26.2696C43.0138 26.486 43.1158 26.744 43.1158 27.1H45.1158C45.1158 26.2986 44.863 25.5673 44.3406 24.9624L42.8269 26.2696ZM43.1158 27.1C43.1158 27.4007 43.0251 27.6449 42.8269 27.8744L44.3406 29.1816C44.8517 28.5898 45.1158 27.882 45.1158 27.1H43.1158ZM42.8269 27.8744C42.6952 28.027 42.4983 28.144 42.0998 28.144V30.144C42.9706 30.144 43.763 29.8504 44.3406 29.1816L42.8269 27.8744ZM42.0998 28.144C42.0342 28.144 41.9851 28.1402 41.9502 28.1355C41.915 28.1308 41.8992 28.1257 41.898 28.1253C41.8971 28.125 41.9147 28.1308 41.9425 28.1489C41.9714 28.1678 42.0069 28.1972 42.0406 28.2393L40.4789 29.4887C40.9191 30.0389 41.5961 30.144 42.0998 30.144V28.144ZM42.1034 28.3271C42.0657 28.2678 41.9949 28.1128 41.9323 27.7999L39.9712 28.1921C40.0579 28.6259 40.1925 29.0495 40.4161 29.4009L42.1034 28.3271ZM41.9261 27.7711C41.8662 27.5114 41.7892 27.2389 41.6782 27.0168L39.8893 27.9112C39.8855 27.9035 39.8952 27.922 39.9142 27.9821C39.9321 28.0389 39.9534 28.1172 39.9774 28.2209L41.9261 27.7711ZM41.6782 27.0168C41.5657 26.7918 41.3871 26.5929 41.1436 26.4601C40.9102 26.3328 40.6725 26.296 40.4757 26.296V28.296C40.4283 28.296 40.3166 28.2872 40.1859 28.2159C40.0451 28.1391 39.9458 28.0242 39.8893 27.9112L41.6782 27.0168ZM40.4757 26.296C39.939 26.296 39.4172 26.4121 38.9533 26.6905L39.9822 28.4055C40.0783 28.3479 40.2285 28.296 40.4757 28.296V26.296ZM38.9716 26.6798C38.6118 26.8854 38.2008 27.2167 37.7575 27.6215L39.106 29.0985C39.5214 28.7193 39.801 28.5093 39.9639 28.4162L38.9716 26.6798ZM37.4532 28.154L35.2132 38.794L37.1703 39.206L39.4103 28.566L37.4532 28.154ZM36.1917 38H32.1598V40H36.1917V38ZM33.138 39.2074L36.106 25.2074L34.1495 24.7926L31.1815 38.7926L33.138 39.2074ZM43.8911 38.076L43.1749 38.7739L43.8911 38.076ZM43.6391 30.32L42.6999 29.9764L42.6976 29.9829L43.6391 30.32ZM46.1031 26.456L46.7977 27.1754L46.7979 27.1752L46.1031 26.456ZM51.7311 25.252L52.3046 24.4328L51.7311 25.252ZM52.2911 26.484H51.2911L53.2702 26.6872L52.2911 26.484ZM52.5991 25V24H51.7853L51.62 24.7968L52.5991 25ZM56.6311 25L57.6094 25.2072L57.865 24H56.6311V25ZM54.6151 34.52L55.5813 34.7777L55.588 34.7526L55.5934 34.7272L54.6151 34.52ZM56.9951 35.892L56.2172 35.2637L56.2097 35.2729L56.2025 35.2823L56.9951 35.892ZM57.9191 33.988V32.988H57.1648L56.9576 33.7133L57.9191 33.988ZM59.0951 33.988L60.0411 34.3121L60.4947 32.988H59.0951V33.988ZM56.5191 38.104L57.0946 38.9218L57.0975 38.9197L56.5191 38.104ZM51.5631 38.524L50.8706 39.2454L50.8853 39.2595L50.9005 39.273L51.5631 38.524ZM50.7231 36.592L51.717 36.4816L51.4264 33.866L49.9067 36.0145L50.7231 36.592ZM48.9031 38.468L49.4843 39.2817L49.4886 39.2787L48.9031 38.468ZM49.7431 35.808L50.435 36.53L50.4356 36.5294L49.7431 35.808ZM50.6951 33.988L51.6719 34.2024L51.6733 34.1958L50.6951 33.988ZM52.0391 27.66L53.0173 27.8678L53.0391 27.765V27.66H52.0391ZM51.7591 26.96L50.9665 27.5697L50.9784 27.5852L50.9909 27.6002L51.7591 26.96ZM48.8751 27.912L49.696 28.4831L49.7017 28.4748L48.8751 27.912ZM47.4751 31.048L48.4388 31.3149L48.4399 31.3111L47.4751 31.048ZM47.3631 36.06L46.656 36.7671L46.6682 36.7793L46.6808 36.7911L47.3631 36.06ZM46.5511 38.168C45.7427 38.168 45.1188 37.9031 44.6073 37.3781L43.1749 38.7739C44.0821 39.7049 45.2315 40.168 46.5511 40.168V38.168ZM44.6073 37.3781C44.1557 36.9146 43.8271 36.0823 43.8271 34.66H41.8271C41.8271 36.3364 42.2078 37.7814 43.1749 38.7739L44.6073 37.3781ZM43.8271 34.66C43.8271 33.4106 44.0718 32.0782 44.5806 30.6571L42.6976 29.9829C42.1237 31.5858 41.8271 33.1468 41.8271 34.66H43.8271ZM44.5782 30.6636C45.0906 29.2631 45.8328 28.107 46.7977 27.1754L45.4085 25.7366C44.2081 26.8956 43.3076 28.3156 42.7 29.9764L44.5782 30.6636ZM46.7979 27.1752C47.7155 26.2887 48.774 25.86 50.0231 25.86V23.86C48.2482 23.86 46.6934 24.4953 45.4083 25.7368L46.7979 27.1752ZM50.0231 25.86C50.7087 25.86 51.0321 25.9833 51.1576 26.0712L52.3046 24.4328C51.6834 23.998 50.8681 23.86 50.0231 23.86V25.86ZM51.1576 26.0712C51.2374 26.1271 51.2631 26.1671 51.2714 26.1825C51.2785 26.1957 51.2911 26.2235 51.2911 26.288H53.2911C53.2911 25.5094 52.9258 24.8677 52.3046 24.4328L51.1576 26.0712ZM51.2911 26.288V26.484H53.2911V26.288H51.2911ZM53.2702 26.6872L53.5782 25.2032L51.62 24.7968L51.312 26.2808L53.2702 26.6872ZM52.5991 26H56.6311V24H52.5991V26ZM55.6528 24.7928L53.6368 34.3128L55.5934 34.7272L57.6094 25.2072L55.6528 24.7928ZM53.6489 34.2623C53.5498 34.6339 53.5031 35.0199 53.5031 35.416H55.5031C55.5031 35.1775 55.5311 34.9661 55.5813 34.7777L53.6489 34.2623ZM53.5031 35.416C53.5031 35.9599 53.6319 36.5535 54.0664 37.0091C54.5093 37.4736 55.1018 37.62 55.6511 37.62V35.62C55.5443 35.62 55.4929 35.6057 55.4789 35.6008C55.4702 35.5977 55.49 35.6039 55.5138 35.6289C55.5656 35.6832 55.5031 35.6748 55.5031 35.416H53.5031ZM55.6511 37.62C56.5397 37.62 57.2617 37.1855 57.7877 36.5017L56.2025 35.2823C55.9818 35.5691 55.8078 35.62 55.6511 35.62V37.62ZM57.773 36.5203C58.2709 35.9039 58.6305 35.138 58.8806 34.2627L56.9576 33.7133C56.7596 34.406 56.5033 34.9094 56.2172 35.2637L57.773 36.5203ZM57.9191 34.988H59.0951V32.988H57.9191V34.988ZM58.1491 33.6639C57.484 35.6053 56.7139 36.74 55.9407 37.2883L57.0975 38.9197C58.3776 38.012 59.3249 36.4027 60.0411 34.3121L58.1491 33.6639ZM55.9436 37.2862C55.0696 37.9012 54.2492 38.168 53.4671 38.168V40.168C54.7383 40.168 55.9526 39.7254 57.0946 38.9218L55.9436 37.2862ZM53.4671 38.168C52.8735 38.168 52.4916 38.0103 52.2257 37.775L50.9005 39.273C51.6053 39.8964 52.4927 40.168 53.4671 40.168V38.168ZM52.2556 37.8026C52.0037 37.5608 51.7925 37.1612 51.717 36.4816L49.7292 36.7024C49.8404 37.7028 50.1891 38.5912 50.8706 39.2454L52.2556 37.8026ZM49.9067 36.0145C49.4207 36.7016 48.8895 37.2443 48.3176 37.6573L49.4886 39.2787C50.2607 38.721 50.9428 38.0131 51.5395 37.1695L49.9067 36.0145ZM48.3219 37.6543C47.8611 37.9834 47.2875 38.168 46.5511 38.168V40.168C47.644 40.168 48.6384 39.886 49.4843 39.2817L48.3219 37.6543ZM48.3711 37.452C49.1714 37.452 49.8639 37.0773 50.435 36.53L49.0512 35.086C48.7263 35.3974 48.5041 35.452 48.3711 35.452V37.452ZM50.4356 36.5294C51.0729 35.9176 51.4705 35.1198 51.6718 34.2024L49.7183 33.7736C49.5837 34.3869 49.3466 34.8024 49.0506 35.0866L50.4356 36.5294ZM51.6733 34.1958L53.0173 27.8678L51.0609 27.4522L49.7169 33.7802L51.6733 34.1958ZM53.0391 27.66C53.0391 27.1386 52.8323 26.6858 52.5273 26.3198L50.9909 27.6002C51.0275 27.6442 51.0386 27.6694 51.0406 27.6744C51.0416 27.6769 51.041 27.676 51.0403 27.6722C51.0395 27.6682 51.0391 27.6639 51.0391 27.66H53.0391ZM52.5517 26.3503C52.1244 25.7947 51.4982 25.596 50.8911 25.596V27.596C50.9863 27.596 51.0196 27.611 51.0154 27.6092C51.0127 27.6081 51.0038 27.6039 50.9924 27.5951C50.9808 27.5863 50.972 27.5769 50.9665 27.5697L52.5517 26.3503ZM50.8911 25.596C49.6873 25.596 48.7475 26.3226 48.0485 27.3492L49.7017 28.4748C50.1974 27.7467 50.6016 27.596 50.8911 27.596V25.596ZM48.0542 27.3409C47.3791 28.3114 46.8699 29.4663 46.5103 30.7849L48.4399 31.3111C48.7522 30.1657 49.1764 29.2299 49.696 28.4831L48.0542 27.3409ZM46.5114 30.7811C46.1591 32.0533 45.9711 33.2193 45.9711 34.268H47.9711C47.9711 33.45 48.1191 32.4694 48.4388 31.3149L46.5114 30.7811ZM45.9711 34.268C45.9711 34.7732 46.0057 35.2344 46.0922 35.6297C46.1744 36.0054 46.328 36.4391 46.656 36.7671L48.0702 35.3529C48.1369 35.4196 48.0945 35.4239 48.046 35.2023C48.0018 35.0003 47.9711 34.6962 47.9711 34.268H45.9711ZM46.6808 36.7911C47.1507 37.2297 47.7324 37.452 48.3711 37.452V35.452C48.2258 35.452 48.1355 35.413 48.0454 35.3289L46.6808 36.7911ZM58.1534 38.104L57.4641 38.8286L57.4736 38.8374L58.1534 38.104ZM57.7614 30.46L58.7123 30.7693L57.7614 30.46ZM60.2254 26.456L60.9266 27.169L60.9325 27.1631L60.2254 26.456ZM66.7494 30.32L67.576 30.8828L66.7494 30.32ZM64.3694 32.448L64.8365 33.3322L64.843 33.3288L64.8494 33.3253L64.3694 32.448ZM61.2054 33.344L61.1389 32.3462L60.2658 32.4044L60.2076 33.2775L61.2054 33.344ZM61.6254 36.34L60.8984 37.0266L60.9082 37.037L60.9183 37.0471L61.6254 36.34ZM65.7414 36.116L65.2017 35.2741L65.1918 35.2806L65.7414 36.116ZM68.1214 33.988V32.988H67.6767L67.3788 33.3182L68.1214 33.988ZM69.0734 33.988L69.9309 34.5025L70.8396 32.988H69.0734V33.988ZM61.4294 32L60.4465 31.8157L60.2118 33.0673L61.4833 32.9985L61.4294 32ZM63.3894 31.272L62.8126 30.455L62.8012 30.4633L63.3894 31.272ZM64.9014 29.564L64.0317 29.0704L64.0266 29.0794L64.0217 29.0885L64.9014 29.564ZM62.8014 27.996L61.9272 27.5103L61.9214 27.5211L62.8014 27.996ZM61.3734 38.168C60.1606 38.168 59.3603 37.8591 58.8331 37.3706L57.4736 38.8374C58.4771 39.7675 59.8235 40.168 61.3734 40.168V38.168ZM58.8426 37.3794C58.3506 36.9114 58.0054 36.097 58.0054 34.716H56.0054C56.0054 36.3964 56.4255 37.8406 57.4642 38.8286L58.8426 37.3794ZM58.0054 34.716C58.0054 33.5566 58.2326 32.244 58.7123 30.7693L56.8104 30.1507C56.2821 31.7747 56.0054 33.2994 56.0054 34.716H58.0054ZM58.7123 30.7693C59.1677 29.3694 59.9047 28.1741 60.9266 27.1689L59.5241 25.7431C58.2687 26.9779 57.363 28.4519 56.8104 30.1507L58.7123 30.7693ZM60.9325 27.1631C61.8659 26.2297 63.0497 25.748 64.5654 25.748V23.748C62.5717 23.748 60.8622 24.4049 59.5183 25.7489L60.9325 27.1631ZM64.5654 25.748C65.4688 25.748 65.9596 25.948 66.2178 26.1734C66.4501 26.3761 66.6454 26.7322 66.6454 27.436H68.6454C68.6454 26.3478 68.3273 25.3599 67.5329 24.6666C66.7645 23.996 65.7153 23.748 64.5654 23.748V25.748ZM66.6454 27.436C66.6454 28.2773 66.409 29.0431 65.9228 29.7572L67.576 30.8828C68.2844 29.8422 68.6454 28.6853 68.6454 27.436H66.6454ZM65.9228 29.7572C65.42 30.4956 64.7488 31.1005 63.8894 31.5707L64.8494 33.3253C65.9686 32.7129 66.8841 31.899 67.576 30.8828L65.9228 29.7572ZM63.9023 31.5638C63.0374 32.0207 62.1193 32.2809 61.1389 32.3462L61.2719 34.3418C62.5315 34.2578 63.7227 33.9206 64.8365 33.3322L63.9023 31.5638ZM60.2076 33.2775C60.1706 33.8319 60.1494 34.2385 60.1494 34.464H62.1494C62.1494 34.3162 62.1655 33.9761 62.2032 33.4105L60.2076 33.2775ZM60.1494 34.464C60.1494 35.4177 60.299 36.392 60.8984 37.0266L62.3524 35.6534C62.3171 35.616 62.1494 35.3397 62.1494 34.464H60.1494ZM60.9183 37.0471C61.5072 37.636 62.3398 37.816 63.1654 37.816V35.816C62.5723 35.816 62.3782 35.6786 62.3325 35.6329L60.9183 37.0471ZM63.1654 37.816C64.3315 37.816 65.3899 37.5442 66.291 36.9514L65.1918 35.2806C64.6741 35.6211 64.0152 35.816 63.1654 35.816V37.816ZM66.281 36.9579C67.1107 36.426 67.9714 35.6473 68.8639 34.6578L67.3788 33.3182C66.554 34.2327 65.828 34.8726 65.2017 35.2741L66.281 36.9579ZM68.1214 34.988H69.0734V32.988H68.1214V34.988ZM68.2159 33.4735C66.2598 36.7336 63.9736 38.168 61.3734 38.168V40.168C64.8958 40.168 67.7429 38.1491 69.9309 34.5025L68.2159 33.4735ZM61.4833 32.9985C62.386 32.9498 63.2219 32.6303 63.9775 32.0807L62.8012 30.4633C62.3248 30.8097 61.8541 30.9756 61.3754 31.0015L61.4833 32.9985ZM63.9661 32.089C64.7281 31.5511 65.3352 30.8643 65.7811 30.0395L64.0217 29.0885C63.7209 29.645 63.32 30.0969 62.8127 30.455L63.9661 32.089ZM65.7711 30.0576C66.2451 29.2224 66.4894 28.325 66.4894 27.38H64.4894C64.4894 27.9656 64.3416 28.5243 64.0317 29.0704L65.7711 30.0576ZM66.4894 27.38C66.4894 26.9283 66.4263 26.4218 66.1682 25.9984C65.861 25.4947 65.3539 25.232 64.7894 25.232V27.232C64.767 27.232 64.6988 27.2265 64.616 27.1812C64.5313 27.1349 64.482 27.0747 64.4606 27.0396C64.4432 27.0111 64.4529 27.0141 64.4657 27.0769C64.4782 27.1385 64.4894 27.2365 64.4894 27.38H66.4894ZM64.7894 25.232C64.1396 25.232 63.5796 25.5213 63.1247 25.925C62.677 26.3222 62.2833 26.8694 61.9272 27.5104L63.6755 28.4816C63.9728 27.9466 64.2371 27.6118 64.4521 27.421C64.6598 27.2367 64.7672 27.232 64.7894 27.232V25.232ZM61.9214 27.5211C61.2314 28.7995 60.743 30.2344 60.4465 31.8157L62.4122 32.1843C62.6758 30.7789 63.102 29.5445 63.6814 28.4709L61.9214 27.5211ZM68.4795 38.664L67.9805 39.5306L67.9905 39.5364L68.0006 39.5419L68.4795 38.664ZM67.1075 37.32L66.2251 37.7906L66.2285 37.7969L66.2319 37.8031L67.1075 37.32ZM67.1075 33.988L67.9395 34.5427L67.9527 34.5229L67.965 34.5025L67.1075 33.988ZM68.1435 32.98L68.5907 33.8744L68.8668 33.7364L69.017 33.4667L68.1435 32.98ZM70.0475 29.032L70.9732 29.4101L70.9751 29.4056L70.0475 29.032ZM71.5875 24.692L71.4535 23.701L70.8233 23.7862L70.6332 24.3931L71.5875 24.692ZM75.7315 24.132L76.7307 24.093L76.6878 22.9937L75.5975 23.141L75.7315 24.132ZM76.2075 31.888L75.2107 31.9683L75.2109 31.971L76.2075 31.888ZM75.4795 37.124L76.2623 37.7462L75.4795 37.124ZM73.3235 38.692L72.9768 37.754L72.9701 37.7565L73.3235 38.692ZM71.5875 36.34L70.9268 35.5893L71.5875 36.34ZM72.1195 32L71.1233 32.0874L71.1243 32.0989L71.1256 32.1104L72.1195 32ZM71.7555 27.716L72.7525 27.6393L70.7986 27.4253L71.7555 27.716ZM69.4875 33.008L68.5996 32.5479L68.1408 33.4333L69.0249 33.8946L69.4875 33.008ZM69.7675 34.94L69.0118 34.2851L68.9989 34.2999L68.9866 34.3153L69.7675 34.94ZM68.1435 34.996L69.0514 34.5769L67.1435 34.996H68.1435ZM68.5355 36.48L67.7635 37.1157L67.7744 37.1289L67.7856 37.1416L68.5355 36.48ZM70.7475 38.168C69.9735 38.168 69.3923 38.0228 68.9583 37.7861L68.0006 39.5419C68.7987 39.9772 69.7294 40.168 70.7475 40.168V38.168ZM68.9784 37.7974C68.4965 37.5199 68.181 37.1957 67.983 36.8369L66.2319 37.8031C66.6313 38.527 67.2304 39.0988 67.9805 39.5306L68.9784 37.7974ZM67.9898 36.8494C67.7634 36.4249 67.6595 36.0069 67.6595 35.584H65.6595C65.6595 36.3557 65.8542 37.0951 66.2251 37.7906L67.9898 36.8494ZM67.6595 35.584C67.6595 35.1361 67.7655 34.8036 67.9395 34.5427L66.2754 33.4333C65.852 34.0684 65.6595 34.7999 65.6595 35.584H67.6595ZM67.965 34.5025C68.1655 34.1683 68.3795 33.98 68.5907 33.8744L67.6963 32.0856C67.0861 32.3906 66.6094 32.8744 66.25 33.4735L67.965 34.5025ZM69.017 33.4667C69.7637 32.1265 70.416 30.7743 70.9732 29.4101L69.1217 28.6539C68.5962 29.9404 67.9792 31.2202 67.2699 32.4933L69.017 33.4667ZM70.9751 29.4056C71.5274 28.0344 72.0494 26.5625 72.5417 24.9909L70.6332 24.3931C70.1548 25.9201 69.6502 27.3416 69.1199 28.6584L70.9751 29.4056ZM71.7214 25.683L75.8654 25.123L75.5975 23.141L71.4535 23.701L71.7214 25.683ZM74.7322 24.171C74.8262 26.5762 74.9858 29.1754 75.2107 31.9683L77.2042 31.8077C76.9812 29.0379 76.8234 26.4665 76.7307 24.093L74.7322 24.171ZM75.2109 31.971C75.304 33.0885 75.3475 33.8648 75.3475 34.324H77.3475C77.3475 33.7752 77.2976 32.9275 77.204 31.805L75.2109 31.971ZM75.3475 34.324C75.3475 35.2889 75.1053 35.9876 74.6966 36.5018L76.2623 37.7462C77.0109 36.8044 77.3475 35.6365 77.3475 34.324H75.3475ZM74.6966 36.5018C74.2299 37.089 73.6611 37.5011 72.9768 37.754L73.6701 39.63C74.7032 39.2482 75.5717 38.615 76.2623 37.7462L74.6966 36.5018ZM72.9701 37.7565C72.2403 38.0322 71.5012 38.168 70.7475 38.168V40.168C71.7484 40.168 72.7266 39.9865 73.6769 39.6275L72.9701 37.7565ZM69.8515 37.956C70.7563 37.956 71.5782 37.6802 72.2481 37.0907L70.9268 35.5893C70.6634 35.8211 70.328 35.956 69.8515 35.956V37.956ZM72.2481 37.0907C73.0159 36.4151 73.2875 35.4164 73.2875 34.352H71.2875C71.2875 35.117 71.0924 35.4436 70.9268 35.5893L72.2481 37.0907ZM73.2875 34.352C73.2875 33.7368 73.2267 32.91 73.1133 31.8896L71.1256 32.1104C71.2362 33.106 71.2875 33.8472 71.2875 34.352H73.2875ZM73.1156 31.9126C72.9289 29.7838 72.808 28.3611 72.7525 27.6393L70.7584 27.7927C70.8149 28.5269 70.9367 29.9602 71.1233 32.0874L73.1156 31.9126ZM70.7986 27.4253C70.3748 28.8203 69.6479 30.5248 68.5996 32.5479L70.3753 33.4681C71.455 31.3845 72.2401 29.561 72.7123 28.0067L70.7986 27.4253ZM69.0249 33.8946C69.1241 33.9464 69.1409 33.9795 69.1348 33.9702C69.1322 33.9663 69.1301 33.9613 69.1292 33.9584C69.1286 33.9562 69.1315 33.9646 69.1315 33.988H71.1315C71.1315 33.5981 71.0312 33.2142 70.8062 32.8718C70.5854 32.5359 70.2801 32.2936 69.95 32.1214L69.0249 33.8946ZM69.1315 33.988C69.1315 34.0906 69.1046 34.178 69.0118 34.2851L70.5232 35.5949C70.9157 35.142 71.1315 34.5947 71.1315 33.988H69.1315ZM68.9866 34.3153C68.9709 34.3349 68.9596 34.3452 68.954 34.3498C68.9511 34.3522 68.9492 34.3535 68.9482 34.3541C68.9473 34.3546 68.9469 34.3548 68.9469 34.3548C68.9469 34.3548 68.9467 34.355 68.946 34.3552C68.9454 34.3554 68.9437 34.3559 68.9408 34.3566C68.9352 34.3578 68.9221 34.36 68.8995 34.36V36.36C69.5618 36.36 70.137 36.0789 70.5483 35.5647L68.9866 34.3153ZM68.8995 34.36C68.7972 34.36 68.7979 34.3428 68.8503 34.368C68.8799 34.3822 68.9202 34.4075 68.9608 34.4481C69.0019 34.4892 69.0319 34.5347 69.0514 34.5769L67.2355 35.4151C67.5832 36.1683 68.3256 36.36 68.8995 36.36V34.36ZM67.1435 34.996C67.1435 35.7633 67.2865 36.5365 67.7635 37.1157L69.3074 35.8443C69.2617 35.7888 69.1435 35.5727 69.1435 34.996H67.1435ZM67.7856 37.1416C68.3234 37.7511 69.0891 37.956 69.8515 37.956V35.956C69.4192 35.956 69.3075 35.8435 69.2853 35.8184L67.7856 37.1416Z" fill="#0082AB"/>
<circle cx="40.0999" cy="30" r="30" fill="#0082AB"/>
<path d="M8.988 19.764C7.56933 20.2307 6.468 21.0053 5.684 22.088C4.91867 23.152 4.536 24.4773 4.536 26.064C4.536 26.7733 4.60133 27.2587 4.732 27.52C4.86267 27.7813 4.928 27.94 4.928 27.996C2.93067 27.996 1.932 27.1467 1.932 25.448C1.932 24.2907 2.37067 23.1333 3.248 21.976C4.144 20.8 5.28267 19.848 6.664 19.12C8.064 18.3733 9.45467 18 10.836 18C11.5267 18 12.236 18.1307 12.964 18.392L12.32 33.148L18.48 18.392H22.512L19.572 39H15.54L17.332 26.428L12.068 39H8.232L8.792 26.372L4.116 39H1.876L8.988 19.764ZM25.5671 39.112C24.1857 39.112 23.0937 38.7573 22.2911 38.048C21.4884 37.3387 21.0871 36.2187 21.0871 34.688C21.0871 33.4187 21.3484 32.0093 21.8711 30.46C22.3937 28.9107 23.2337 27.576 24.3911 26.456C25.5484 25.3173 27.0044 24.748 28.7591 24.748C31.1484 24.748 32.3431 26.2413 32.3431 29.228V29.256C32.3991 29.2747 32.5017 29.284 32.6511 29.284C33.2671 29.284 33.9764 29.1253 34.7791 28.808C35.5817 28.472 36.3097 28.0707 36.9631 27.604L37.2151 28.36C36.6737 28.9387 35.9644 29.4333 35.0871 29.844C34.2284 30.236 33.2857 30.516 32.2591 30.684C32.1097 32.3827 31.7271 33.8667 31.1111 35.136C30.4951 36.4053 29.7017 37.3853 28.7311 38.076C27.7604 38.7667 26.7057 39.112 25.5671 39.112ZM26.6871 36.592C27.1351 36.592 27.5831 36.34 28.0311 35.836C28.4791 35.3133 28.8711 34.6133 29.2071 33.736C29.5431 32.84 29.7857 31.8507 29.9351 30.768C29.4311 30.656 29.1791 30.264 29.1791 29.592C29.1791 28.8267 29.4684 28.3227 30.0471 28.08C30.0097 27.464 29.9164 27.044 29.7671 26.82C29.6177 26.5773 29.3564 26.456 28.9831 26.456C28.3671 26.456 27.7697 26.904 27.1911 27.8C26.6124 28.696 26.1457 29.7693 25.7911 31.02C25.4364 32.2707 25.2591 33.372 25.2591 34.324C25.2591 35.22 25.3617 35.8267 25.5671 36.144C25.7724 36.4427 26.1457 36.592 26.6871 36.592ZM35.1278 25H39.1598L38.7958 26.736C39.4304 26.176 39.9998 25.7467 40.5038 25.448C41.0264 25.1493 41.5864 25 42.1838 25C42.7811 25 43.2478 25.2053 43.5838 25.616C43.9384 26.0267 44.1158 26.5213 44.1158 27.1C44.1158 27.6413 43.9384 28.1173 43.5838 28.528C43.2291 28.9387 42.7344 29.144 42.0998 29.144C41.6891 29.144 41.4091 29.0507 41.2598 28.864C41.1291 28.6587 41.0264 28.3693 40.9518 27.996C40.8958 27.7533 40.8398 27.576 40.7838 27.464C40.7278 27.352 40.6251 27.296 40.4758 27.296C40.0838 27.296 39.7478 27.38 39.4678 27.548C39.2064 27.6973 38.8611 27.968 38.4318 28.36L36.1918 39H32.1598L35.1278 25ZM46.5511 39.168C45.4871 39.168 44.6004 38.804 43.8911 38.076C43.1818 37.348 42.8271 36.2093 42.8271 34.66C42.8271 33.2787 43.0978 31.832 43.6391 30.32C44.1991 28.7893 45.0204 27.5013 46.1031 26.456C47.2044 25.392 48.5111 24.86 50.0231 24.86C50.7884 24.86 51.3578 24.9907 51.7311 25.252C52.1044 25.5133 52.2911 25.8587 52.2911 26.288V26.484L52.5991 25H56.6311L54.6151 34.52C54.5404 34.8 54.5031 35.0987 54.5031 35.416C54.5031 36.2187 54.8858 36.62 55.6511 36.62C56.1738 36.62 56.6218 36.3773 56.9951 35.892C57.3871 35.4067 57.6951 34.772 57.9191 33.988H59.0951C58.4044 36.004 57.5458 37.376 56.5191 38.104C55.5111 38.8133 54.4938 39.168 53.4671 39.168C52.6831 39.168 52.0484 38.9533 51.5631 38.524C51.0964 38.076 50.8164 37.432 50.7231 36.592C50.1818 37.3573 49.5751 37.9827 48.9031 38.468C48.2498 38.9347 47.4658 39.168 46.5511 39.168ZM48.3711 36.452C48.8378 36.452 49.2951 36.2373 49.7431 35.808C50.2098 35.36 50.5271 34.7533 50.6951 33.988L52.0391 27.66C52.0391 27.4173 51.9458 27.184 51.7591 26.96C51.5724 26.7173 51.2831 26.596 50.8911 26.596C50.1444 26.596 49.4724 27.0347 48.8751 27.912C48.2778 28.7707 47.8111 29.816 47.4751 31.048C47.1391 32.2613 46.9711 33.3347 46.9711 34.268C46.9711 35.2013 47.1018 35.7987 47.3631 36.06C47.6431 36.3213 47.9791 36.452 48.3711 36.452ZM61.3734 39.168C59.992 39.168 58.9187 38.8133 58.1534 38.104C57.388 37.376 57.0054 36.2467 57.0054 34.716C57.0054 33.428 57.2574 32.0093 57.7614 30.46C58.2654 28.9107 59.0867 27.576 60.2254 26.456C61.364 25.3173 62.8107 24.748 64.5654 24.748C66.6187 24.748 67.6454 25.644 67.6454 27.436C67.6454 28.4813 67.3467 29.4427 66.7494 30.32C66.152 31.1973 65.3587 31.9067 64.3694 32.448C63.38 32.9707 62.3254 33.2693 61.2054 33.344C61.168 33.904 61.1494 34.2773 61.1494 34.464C61.1494 35.3787 61.308 36.004 61.6254 36.34C61.9427 36.6573 62.456 36.816 63.1654 36.816C64.1734 36.816 65.032 36.5827 65.7414 36.116C66.4694 35.6493 67.2627 34.94 68.1214 33.988H69.0734C67.0014 37.4413 64.4347 39.168 61.3734 39.168ZM61.4294 32C62.12 31.9627 62.7734 31.72 63.3894 31.272C64.024 30.824 64.528 30.2547 64.9014 29.564C65.2934 28.8733 65.4894 28.1453 65.4894 27.38C65.4894 26.6147 65.256 26.232 64.7894 26.232C64.1174 26.232 63.4547 26.82 62.8014 27.996C62.1667 29.172 61.7094 30.5067 61.4294 32ZM70.7475 39.168C69.8515 39.168 69.0955 39 68.4795 38.664C67.8635 38.3093 67.4061 37.8613 67.1075 37.32C66.8088 36.76 66.6595 36.1813 66.6595 35.584C66.6595 34.968 66.8088 34.436 67.1075 33.988C67.3875 33.5213 67.7328 33.1853 68.1435 32.98C68.8715 31.6733 69.5061 30.3573 70.0475 29.032C70.5888 27.688 71.1021 26.2413 71.5875 24.692L75.7315 24.132C75.8248 26.5213 75.9835 29.1067 76.2075 31.888C76.3008 33.008 76.3475 33.82 76.3475 34.324C76.3475 35.4627 76.0581 36.396 75.4795 37.124C74.9008 37.852 74.1821 38.3747 73.3235 38.692C72.4835 39.0093 71.6248 39.168 70.7475 39.168ZM69.8515 36.956C70.5421 36.956 71.1208 36.7507 71.5875 36.34C72.0541 35.9293 72.2875 35.2667 72.2875 34.352C72.2875 33.792 72.2315 33.008 72.1195 32C71.9328 29.872 71.8115 28.444 71.7555 27.716C71.3075 29.1907 70.5515 30.9547 69.4875 33.008C69.9168 33.232 70.1315 33.5587 70.1315 33.988C70.1315 34.3427 70.0101 34.66 69.7675 34.94C69.5435 35.22 69.2541 35.36 68.8995 35.36C68.5075 35.36 68.2555 35.2387 68.1435 34.996C68.1435 35.668 68.2741 36.1627 68.5355 36.48C68.8155 36.7973 69.2541 36.956 69.8515 36.956Z" fill="white"/>
</svg>
